<svg version="1.1" xmlns="http://www.w3.org/2000/svg" xmlns:xlink="http://www.w3.org/1999/xlink" width="1022" height="1621"><defs/><g><g/><g/><g/><g/><g/><g/><g/><g/><g/><g/><g/><g/><g/><g/><g/><g/><g/><g/><g/><g/><g/><g/><g/><g/><g/><g/><g/><g/><g/><g/><g/><g/><g/><g/><g/><g/><g/><g/><g/><g/><g/><g/><g/><g/><g/><g/><g/><g/><g/><g/><g/><g/><g/><g><rect fill="white" stroke="none" x="0" y="0" width="1022" height="1621"/></g><g><g><path fill="lightyellow" stroke="black" paint-order="fill stroke markers" d=" M 14.639986410499999 30.333787134954548 L 218.52133173516665 30.333787134954548 L 218.52133173516665 1603.3887338429545 L 14.639986410499999 1603.3887338429545 L 14.639986410499999 30.333787134954548" stroke-miterlimit="10" stroke-width="0.7329898916666666" stroke-dasharray=""/></g><g><path fill="lightgreen" stroke="black" paint-order="fill stroke markers" d=" M 370.03554052899995 5.145589039500003 L 647.9168858536666 5.145589039500003 L 647.9168858536666 1603.3887338429545 L 370.03554052899995 1603.3887338429545 L 370.03554052899995 5.145589039500003" stroke-miterlimit="10" stroke-width="0.7329898916666666" stroke-dasharray=""/></g><g><text fill="black" stroke="none" font-family="sans-serif" font-size="10.909090909090908pt" font-style="normal" font-weight="bold" text-decoration="normal" x="471.4762131913333" y="23.936784444045458" text-anchor="start" dominant-baseline="alphabetic" xml:space="preserve">Zerbitzaria</text></g><g><path fill="lightyellow" stroke="black" paint-order="fill stroke markers" d=" M 799.4310946474999 30.333787134954548 L 1003.3124399721665 30.333787134954548 L 1003.3124399721665 1603.3887338429545 L 799.4310946474999 1603.3887338429545 L 799.4310946474999 30.333787134954548" stroke-miterlimit="10" stroke-width="0.7329898916666666" stroke-dasharray=""/></g><rect fill="rgb(255,204,204)" stroke="none" x="8.795878700000003" y="268.13036778945457" width="591.306112108" height="129.739210825"/><rect fill="rgb(213,213,229)" stroke="none" x="8.795878700000003" y="530.5114294104544" width="418.46670501849997" height="77.57965013399996"/><rect fill="rgb(255,204,204)" stroke="none" x="478.19063774133326" y="656.9961651164542" width="530.9659099413333" height="128.55176720050008"/><rect fill="rgb(213,213,229)" stroke="none" x="8.795878700000003" y="918.1897831129543" width="1000.3606689826665" height="104.49503895599992"/><rect fill="rgb(213,213,229)" stroke="none" x="8.795878700000003" y="1035.878640118954" width="1000.3606689826665" height="77.57965013400008"/><rect fill="rgb(213,213,229)" stroke="none" x="8.795878700000003" y="1126.652108302954" width="1000.3606689826665" height="77.57965013400008"/><rect fill="rgb(213,213,229)" stroke="none" x="8.795878700000003" y="1217.425576486954" width="1000.3606689826665" height="77.57965013400008"/><rect fill="rgb(213,213,229)" stroke="none" x="590.6898426641666" y="1424.3046435109543" width="418.46670501849997" height="50.66426131200001"/></g><g><path fill="none" stroke="black" paint-order="fill stroke markers" d=" M 39.58145415 384.67576056445455 L 39.58145415 1316.1153355009542" stroke-miterlimit="10" stroke-width="0.7329898916666666" stroke-dasharray="6.766060538461538,2.9319595666666665"/><path fill="none" stroke="black" paint-order="fill stroke markers" d=" M 118.58065907283333 61.42721833945455 L 118.58065907283333 1374.1681349209543" stroke-miterlimit="10" stroke-width="0.7329898916666666" stroke-dasharray="6.766060538461538,2.9319595666666665"/><path fill="none" stroke="black" paint-order="fill stroke markers" d=" M 195.57986399566664 345.13828580795456 L 195.57986399566664 1345.1417352109543" stroke-miterlimit="10" stroke-width="0.7329898916666666" stroke-dasharray="6.766060538461538,2.9319595666666665"/><path fill="none" stroke="black" paint-order="fill stroke markers" d=" M 396.47700826849996 444.13590057645456 L 396.47700826849996 1403.1945346309544" stroke-miterlimit="10" stroke-width="0.7329898916666666" stroke-dasharray="6.766060538461538,2.9319595666666665"/><path fill="none" stroke="black" paint-order="fill stroke markers" d=" M 508.9762131913333 61.42721833945455 L 508.9762131913333 1621.8600791129545" stroke-miterlimit="10" stroke-width="0.7329898916666666" stroke-dasharray="6.766060538461538,2.9319595666666665"/><path fill="none" stroke="black" paint-order="fill stroke markers" d=" M 621.4754181141666 831.8142542789543 L 621.4754181141666 1583.1582128329546" stroke-miterlimit="10" stroke-width="0.7329898916666666" stroke-dasharray="6.766060538461538,2.9319595666666665"/><path fill="none" stroke="black" paint-order="fill stroke markers" d=" M 822.3725623869999 734.0040831349543 L 822.3725623869999 1525.1054134129545" stroke-miterlimit="10" stroke-width="0.7329898916666666" stroke-dasharray="6.766060538461538,2.9319595666666665"/><path fill="none" stroke="black" paint-order="fill stroke markers" d=" M 899.3717673098332 61.42721833945455 L 899.3717673098332 1554.1318131229546" stroke-miterlimit="10" stroke-width="0.7329898916666666" stroke-dasharray="6.766060538461538,2.9319595666666665"/><path fill="none" stroke="black" paint-order="fill stroke markers" d=" M 978.3709722326665 772.3541142669543 L 978.3709722326665 1496.0790137029544" stroke-miterlimit="10" stroke-width="0.7329898916666666" stroke-dasharray="6.766060538461538,2.9319595666666665"/></g><g><path fill="none" stroke="none"/><g><path fill="white" stroke="black" paint-order="fill stroke markers" d=" M 86.03713068333333 35.47937617445455 L 151.12418746233334 35.47937617445455 L 151.12418746233334 61.427218339454555 L 86.03713068333333 61.427218339454555 L 86.03713068333333 35.47937617445455 Z" stroke-miterlimit="10" stroke-width="1.407340592" stroke-dasharray=""/></g><g><text fill="black" stroke="none" font-family="sans-serif" font-size="7.199999999999999pt" font-style="normal" font-weight="bold" text-decoration="normal" x="95.58065907283333" y="52.10358691745455" text-anchor="start" dominant-baseline="alphabetic" xml:space="preserve">Bezeroa1</text></g><path fill="none" stroke="none"/><g><path fill="white" stroke="black" paint-order="fill stroke markers" d=" M 469.43268480183326 35.47937617445455 L 548.5197415808333 35.47937617445455 L 548.5197415808333 61.427218339454555 L 469.43268480183326 61.427218339454555 L 469.43268480183326 35.47937617445455 Z" stroke-miterlimit="10" stroke-width="1.407340592" stroke-dasharray=""/></g><g><text fill="black" stroke="none" font-family="sans-serif" font-size="7.199999999999999pt" font-style="normal" font-weight="bold" text-decoration="normal" x="478.9762131913333" y="52.10358691745455" text-anchor="start" dominant-baseline="alphabetic" xml:space="preserve">Main Thread</text></g><path fill="none" stroke="none"/><g><path fill="white" stroke="black" paint-order="fill stroke markers" d=" M 866.8282389203332 35.47937617445455 L 931.9152956993332 35.47937617445455 L 931.9152956993332 61.427218339454555 L 866.8282389203332 61.427218339454555 L 866.8282389203332 35.47937617445455 Z" stroke-miterlimit="10" stroke-width="1.407340592" stroke-dasharray=""/></g><g><text fill="black" stroke="none" font-family="sans-serif" font-size="7.199999999999999pt" font-style="normal" font-weight="bold" text-decoration="normal" x="876.3717673098332" y="52.10358691745455" text-anchor="start" dominant-baseline="alphabetic" xml:space="preserve">Bezeroa2</text></g></g><g><path fill="white" stroke="black" paint-order="fill stroke markers" d=" M 459.1619830113333 86.93526656945455 L 459.1619830113333 86.93526656945455 A 7.9162908299999994 7.9162908299999994 0 0 1 467.07827384133327 79.01897573945456 L 550.8741525413333 79.01897573945456 L 550.8741525413333 79.01897573945456 A 7.9162908299999994 7.9162908299999994 0 0 1 558.7904433713333 86.93526656945455 L 558.7904433713333 93.62013438145456 L 558.7904433713333 93.62013438145456 A 7.9162908299999994 7.9162908299999994 0 0 1 550.8741525413333 101.53642521145456 L 467.07827384133327 101.53642521145456 L 467.07827384133327 101.53642521145456 A 7.9162908299999994 7.9162908299999994 0 0 1 459.1619830113333 93.62013438145456 L 459.1619830113333 86.93526656945455" stroke-miterlimit="10" stroke-width="0.7329898916666666" stroke-dasharray=""/><g><text fill="black" stroke="none" font-family="sans-serif" font-size="7.199999999999999pt" font-style="italic" font-weight="bold" text-decoration="normal" x="471.4762131913333" y="92.91646408545455" text-anchor="start" dominant-baseline="alphabetic" xml:space="preserve">socket.socket()</text></g><path fill="white" stroke="black" paint-order="fill stroke markers" d=" M 443.1619830113333 122.64653409145455 L 443.1619830113333 122.64653409145455 A 7.9162908299999994 7.9162908299999994 0 0 1 451.07827384133327 114.73024326145456 L 566.8741525413333 114.73024326145456 L 566.8741525413333 114.73024326145456 A 7.9162908299999994 7.9162908299999994 0 0 1 574.7904433713333 122.64653409145455 L 574.7904433713333 129.33140190345455 L 574.7904433713333 129.33140190345455 A 7.9162908299999994 7.9162908299999994 0 0 1 566.8741525413333 137.24769273345456 L 451.07827384133327 137.24769273345456 L 451.07827384133327 137.24769273345456 A 7.9162908299999994 7.9162908299999994 0 0 1 443.1619830113333 129.33140190345455 L 443.1619830113333 122.64653409145455" stroke-miterlimit="10" stroke-width="0.7329898916666666" stroke-dasharray=""/><g><text fill="black" stroke="none" font-family="sans-serif" font-size="7.199999999999999pt" font-style="italic" font-weight="bold" text-decoration="normal" x="455.4762131913333" y="128.62773160745454" text-anchor="start" dominant-baseline="alphabetic" xml:space="preserve">socket.bind(addr:port)</text></g><path fill="white" stroke="black" paint-order="fill stroke markers" d=" M 462.1619830113333 158.35780161345454 L 462.1619830113333 158.35780161345454 A 7.9162908299999994 7.9162908299999994 0 0 1 470.07827384133327 150.44151078345453 L 547.8741525413333 150.44151078345453 L 547.8741525413333 150.44151078345453 A 7.9162908299999994 7.9162908299999994 0 0 1 555.7904433713333 158.35780161345454 L 555.7904433713333 165.04266942545453 L 555.7904433713333 165.04266942545453 A 7.9162908299999994 7.9162908299999994 0 0 1 547.8741525413333 172.95896025545454 L 470.07827384133327 172.95896025545454 L 470.07827384133327 172.95896025545454 A 7.9162908299999994 7.9162908299999994 0 0 1 462.1619830113333 165.04266942545453 L 462.1619830113333 158.35780161345454" stroke-miterlimit="10" stroke-width="0.7329898916666666" stroke-dasharray=""/><g><text fill="black" stroke="none" font-family="sans-serif" font-size="7.199999999999999pt" font-style="italic" font-weight="bold" text-decoration="normal" x="474.4762131913333" y="164.33899912945452" text-anchor="start" dominant-baseline="alphabetic" xml:space="preserve">socket.listen()</text></g><path fill="white" stroke="black" paint-order="fill stroke markers" d=" M 446.1619830113333 194.06906913545455 L 446.1619830113333 194.06906913545455 A 7.9162908299999994 7.9162908299999994 0 0 1 454.07827384133327 186.15277830545455 L 563.8741525413333 186.15277830545455 L 563.8741525413333 186.15277830545455 A 7.9162908299999994 7.9162908299999994 0 0 1 571.7904433713333 194.06906913545455 L 571.7904433713333 211.30899138745454 L 571.7904433713333 211.30899138745454 A 7.9162908299999994 7.9162908299999994 0 0 1 563.8741525413333 219.22528221745455 L 454.07827384133327 219.22528221745455 L 454.07827384133327 219.22528221745455 A 7.9162908299999994 7.9162908299999994 0 0 1 446.1619830113333 211.30899138745454 L 446.1619830113333 194.06906913545455" stroke-miterlimit="10" stroke-width="0.7329898916666666" stroke-dasharray=""/><g><text fill="black" stroke="none" font-family="sans-serif" font-size="7.199999999999999pt" font-style="italic" font-weight="bold" text-decoration="normal" x="471.4762131913333" y="200.05026665145454" text-anchor="start" dominant-baseline="alphabetic" xml:space="preserve">socket.accept()</text><text fill="black" stroke="none" font-family="sans-serif" font-size="7.199999999999999pt" font-style="italic" font-weight="normal" text-decoration="normal" x="458.4762131913333" y="210.60532109145453" text-anchor="start" dominant-baseline="alphabetic" xml:space="preserve">konexioak itxaroten...</text></g><path fill="white" stroke="black" paint-order="fill stroke markers" d=" M 68.76642889283332 240.33539109745456 L 68.76642889283332 240.33539109745456 A 7.9162908299999994 7.9162908299999994 0 0 1 76.68271972283331 232.41910026745455 L 160.4785984228333 232.41910026745455 L 160.4785984228333 232.41910026745455 A 7.9162908299999994 7.9162908299999994 0 0 1 168.3948892528333 240.33539109745456 L 168.3948892528333 247.02025890945455 L 168.3948892528333 247.02025890945455 A 7.9162908299999994 7.9162908299999994 0 0 1 160.4785984228333 254.93654973945456 L 76.68271972283331 254.93654973945456 L 76.68271972283331 254.93654973945456 A 7.9162908299999994 7.9162908299999994 0 0 1 68.76642889283332 247.02025890945455 L 68.76642889283332 240.33539109745456" stroke-miterlimit="10" stroke-width="0.7329898916666666" stroke-dasharray=""/><g><text fill="black" stroke="none" font-family="sans-serif" font-size="7.199999999999999pt" font-style="italic" font-weight="bold" text-decoration="normal" x="81.08065907283333" y="246.31658861345454" text-anchor="start" dominant-baseline="alphabetic" xml:space="preserve">socket.socket()</text></g><g><g><rect fill="rgb(255,204,204)" stroke="none" x="249.9590543270833" y="291.87924027945456" width="127.63876361" height="13.721570772"/></g><text fill="black" stroke="none" font-family="sans-serif" font-size="7.199999999999999pt" font-style="italic" font-weight="bold" text-decoration="normal" x="251.2784361320833" y="301.37878927545455" text-anchor="start" dominant-baseline="alphabetic" xml:space="preserve">socket.connect(addr:port)</text></g><g><path fill="none" stroke="black" paint-order="fill stroke markers" d=" M 118.58065907283333 305.60081105145457 L 507.5102334079999 305.60081105145457" stroke-miterlimit="10" stroke-width="0.7329898916666666" stroke-dasharray=""/><g transform="translate(508.9762131913333,305.60081105145457) translate(-508.9762131913333,-305.60081105145457)"><path fill="black" stroke="none" paint-order="stroke fill markers" d=" M 501.6463142746666 301.9358615931212 L 508.9762131913333 305.60081105145457 L 501.6463142746666 309.2657605097879 Z"/></g></g><path fill="none" stroke="none"/><g><path fill="white" stroke="black" paint-order="fill stroke markers" d=" M 177.03633560616663 320.64176362845456 L 214.12339238516662 320.64176362845456 L 214.12339238516662 344.39063611845455 L 177.03633560616663 344.39063611845455 L 177.03633560616663 320.64176362845456 Z" stroke-miterlimit="10" stroke-width="1.407340592" stroke-dasharray=""/></g><g><g/><text fill="black" stroke="none" font-family="sans-serif" font-size="6pt" font-style="normal" font-weight="normal" text-decoration="normal" x="186.57986399566664" y="335.59475741845455" text-anchor="start" dominant-baseline="alphabetic" xml:space="preserve">recv1</text></g><g><g><rect fill="rgb(255,204,204)" stroke="none" x="128.98911553449997" y="318.7946291014546" width="37.63876361" height="13.721570772"/></g><text fill="black" stroke="none" font-family="sans-serif" font-size="7.199999999999999pt" font-style="normal" font-weight="normal" text-decoration="normal" x="130.30849733949998" y="328.29417809745456" text-anchor="start" dominant-baseline="alphabetic" xml:space="preserve">create()</text></g><g><path fill="none" stroke="black" paint-order="fill stroke markers" d=" M 118.58065907283333 332.5161998734546 L 175.5703558228333 332.5161998734546" stroke-miterlimit="10" stroke-width="0.7329898916666666" stroke-dasharray="3.5183514799999998"/><g transform="translate(177.03633560616663,332.5161998734546) translate(-177.03633560616663,-332.5161998734546)"><path fill="black" stroke="none" paint-order="stroke fill markers" d=" M 169.70643668949995 328.8512504151212 L 177.03633560616663 332.5161998734546 L 169.70643668949995 336.18114933178794 Z"/></g></g><path fill="none" stroke="none"/><g><path fill="white" stroke="black" paint-order="fill stroke markers" d=" M 19.0379257605 360.17923838495454 L 60.124982539499996 360.17923838495454 L 60.124982539499996 383.92811087495454 L 19.0379257605 383.92811087495454 L 19.0379257605 360.17923838495454 Z" stroke-miterlimit="10" stroke-width="1.407340592" stroke-dasharray=""/></g><g><g/><text fill="black" stroke="none" font-family="sans-serif" font-size="6pt" font-style="normal" font-weight="normal" text-decoration="normal" x="28.58145415" y="375.13223217495454" text-anchor="start" dominant-baseline="alphabetic" xml:space="preserve">GUI_1</text></g><g><g><rect fill="rgb(255,204,204)" stroke="none" x="70.53343900116666" y="358.33210385795456" width="37.63876361" height="13.721570772"/></g><text fill="black" stroke="none" font-family="sans-serif" font-size="7.199999999999999pt" font-style="normal" font-weight="normal" text-decoration="normal" x="71.85282080616666" y="367.83165285395455" text-anchor="start" dominant-baseline="alphabetic" xml:space="preserve">create()</text></g><g><path fill="none" stroke="black" paint-order="fill stroke markers" d=" M 118.58065907283333 372.05367462995457 L 61.59096232283333 372.05367462995457" stroke-miterlimit="10" stroke-width="0.7329898916666666" stroke-dasharray="3.5183514799999998"/><g transform="translate(60.124982539499996,372.05367462995457) translate(-60.124982539499996,-372.05367462995457)"><path fill="black" stroke="none" paint-order="stroke fill markers" d=" M 67.45488145616666 368.3887251716212 L 60.124982539499996 372.05367462995457 L 67.45488145616666 375.7186240882879 Z"/></g></g><g><g><rect fill="rgb(255,204,204)" stroke="none" x="519.384669653" y="359.5195474824545" width="77.63876361" height="13.721570772"/></g><text fill="black" stroke="none" font-family="sans-serif" font-size="7.199999999999999pt" font-style="italic" font-weight="bold" text-decoration="normal" x="520.704051458" y="369.0190964784545" text-anchor="start" dominant-baseline="alphabetic" xml:space="preserve">socket.accept()</text></g><g><path fill="none" stroke="black" paint-order="fill stroke markers" d=" M 508.9762131913333 373.24111825445453 L 544.1597279913333 373.24111825445453 L 544.1597279913333 384.67576056445455 L 510.4421929746666 384.67576056445455" stroke-miterlimit="10" stroke-width="0.7329898916666666" stroke-dasharray=""/><g transform="translate(508.9762131913333,384.67576056445455) translate(-508.9762131913333,-384.67576056445455)"><path fill="black" stroke="none" paint-order="stroke fill markers" d=" M 516.306112108 381.0108111061212 L 508.9762131913333 384.67576056445455 L 516.306112108 388.3407100227879 Z"/></g></g><g><g><rect fill="rgb(255,204,204)" stroke="none" x="312.4590543270833" y="373.24111825445453" width="2.63876361" height="11.43464231"/></g><text fill="black" stroke="none" font-family="sans-serif" font-size="6pt" font-style="normal" font-weight="normal" text-decoration="normal" x="313.7784361320833" y="381.1574090844545" text-anchor="start" dominant-baseline="alphabetic" xml:space="preserve"></text></g><g><path fill="none" stroke="black" paint-order="fill stroke markers" d=" M 508.9762131913333 384.67576056445455 L 120.04663885616667 384.67576056445455" stroke-miterlimit="10" stroke-width="0.7329898916666666" stroke-dasharray="3.5183514799999998"/><g transform="translate(118.58065907283333,384.67576056445455) translate(-118.58065907283333,-384.67576056445455)"><path fill="black" stroke="none" paint-order="stroke fill markers" d=" M 125.91055798949999 381.0108111061212 L 118.58065907283333 384.67576056445455 L 125.91055798949999 388.3407100227879 Z"/></g></g><path fill="white" stroke="black" paint-order="fill stroke markers" d=" M 140.76563381566663 418.97968749445454 L 140.76563381566663 418.97968749445454 A 7.9162908299999994 7.9162908299999994 0 0 1 148.68192464566664 411.06339666445456 L 242.47780334566662 411.06339666445456 L 242.47780334566662 411.06339666445456 A 7.9162908299999994 7.9162908299999994 0 0 1 250.39409417566662 418.97968749445454 L 250.39409417566662 436.2196097464546 L 250.39409417566662 436.2196097464546 A 7.9162908299999994 7.9162908299999994 0 0 1 242.47780334566662 444.13590057645456 L 148.68192464566664 444.13590057645456 L 148.68192464566664 444.13590057645456 A 7.9162908299999994 7.9162908299999994 0 0 1 140.76563381566663 436.2196097464546 L 140.76563381566663 418.97968749445454" stroke-miterlimit="10" stroke-width="0.7329898916666666" stroke-dasharray=""/><g><text fill="black" stroke="none" font-family="sans-serif" font-size="7.199999999999999pt" font-style="italic" font-weight="bold" text-decoration="normal" x="163.57986399566664" y="424.96088501045455" text-anchor="start" dominant-baseline="alphabetic" xml:space="preserve">socket.recv()</text><text fill="black" stroke="none" font-family="sans-serif" font-size="7.199999999999999pt" font-style="italic" font-weight="normal" text-decoration="normal" x="153.07986399566664" y="435.51593945045454" text-anchor="start" dominant-baseline="alphabetic" xml:space="preserve">datuak itxaroten...</text></g><path fill="none" stroke="none"/><g><path fill="white" stroke="black" paint-order="fill stroke markers" d=" M 374.43347987899995 419.63937839695456 L 418.52053665799997 419.63937839695456 L 418.52053665799997 443.38825088695455 L 374.43347987899995 443.38825088695455 L 374.43347987899995 419.63937839695456 Z" stroke-miterlimit="10" stroke-width="1.407340592" stroke-dasharray=""/></g><g><g/><text fill="black" stroke="none" font-family="sans-serif" font-size="6pt" font-style="normal" font-weight="normal" text-decoration="normal" x="383.97700826849996" y="434.59237218695455" text-anchor="start" dominant-baseline="alphabetic" xml:space="preserve">thread1</text></g><g><text fill="black" stroke="none" font-family="sans-serif" font-size="7.199999999999999pt" font-style="normal" font-weight="normal" text-decoration="normal" x="430.2483749246666" y="427.29179286595456" text-anchor="start" dominant-baseline="alphabetic" xml:space="preserve">create(client1)</text></g><g><path fill="none" stroke="black" paint-order="fill stroke markers" d=" M 508.9762131913333 431.5138146419546 L 419.9865164413333 431.5138146419546" stroke-miterlimit="10" stroke-width="0.7329898916666666" stroke-dasharray="3.5183514799999998"/><g transform="translate(418.52053665799997,431.5138146419546) translate(-418.52053665799997,-431.5138146419546)"><path fill="black" stroke="none" paint-order="stroke fill markers" d=" M 425.8504355746666 427.84886518362123 L 418.52053665799997 431.5138146419546 L 425.8504355746666 435.17876410028794 Z"/></g></g><g><text fill="black" stroke="none" font-family="sans-serif" font-size="7.199999999999999pt" font-style="italic" font-weight="bold" text-decoration="normal" x="238.0284361320833" y="466.82926762245455" text-anchor="start" dominant-baseline="alphabetic" xml:space="preserve">socket.send("user???")</text></g><g><path fill="none" stroke="black" paint-order="fill stroke markers" d=" M 396.47700826849996 471.05128939845457 L 197.04584377899997 471.05128939845457" stroke-miterlimit="10" stroke-width="0.7329898916666666" stroke-dasharray=""/><g transform="translate(195.57986399566664,471.05128939845457) translate(-195.57986399566664,-471.05128939845457)"><path fill="black" stroke="none" paint-order="stroke fill markers" d=" M 202.90976291233332 467.3863399401212 L 195.57986399566664 471.05128939845457 L 202.90976291233332 474.7162388567879 Z"/></g></g><g><text fill="black" stroke="none" font-family="sans-serif" font-size="7.199999999999999pt" font-style="italic" font-weight="bold" text-decoration="normal" x="92.58065907283331" y="466.82926762245455" text-anchor="start" dominant-baseline="alphabetic" xml:space="preserve">"user???"</text></g><g><path fill="none" stroke="black" paint-order="fill stroke markers" d=" M 195.57986399566664 471.05128939845457 L 41.04743393333333 471.05128939845457" stroke-miterlimit="10" stroke-width="0.7329898916666666" stroke-dasharray="3.5183514799999998"/><g transform="translate(39.58145415,471.05128939845457) translate(-39.58145415,-471.05128939845457)"><path fill="black" stroke="none" paint-order="stroke fill markers" d=" M 46.91135306666666 467.3863399401212 L 39.58145415 471.05128939845457 L 46.91135306666666 474.7162388567879 Z"/></g></g><path fill="white" stroke="black" paint-order="fill stroke markers" d=" M 341.6627780885 492.1613982784545 L 341.6627780885 492.1613982784545 A 7.9162908299999994 7.9162908299999994 0 0 1 349.57906891849996 484.2451074484545 L 443.3749476185 484.2451074484545 L 443.3749476185 484.2451074484545 A 7.9162908299999994 7.9162908299999994 0 0 1 451.2912384485 492.1613982784545 L 451.2912384485 509.40132053045454 L 451.2912384485 509.40132053045454 A 7.9162908299999994 7.9162908299999994 0 0 1 443.3749476185 517.3176113604545 L 349.57906891849996 517.3176113604545 L 349.57906891849996 517.3176113604545 A 7.9162908299999994 7.9162908299999994 0 0 1 341.6627780885 509.40132053045454 L 341.6627780885 492.1613982784545" stroke-miterlimit="10" stroke-width="0.7329898916666666" stroke-dasharray=""/><g><text fill="black" stroke="none" font-family="sans-serif" font-size="7.199999999999999pt" font-style="italic" font-weight="bold" text-decoration="normal" x="364.47700826849996" y="498.1425957944545" text-anchor="start" dominant-baseline="alphabetic" xml:space="preserve">socket.recv()</text><text fill="black" stroke="none" font-family="sans-serif" font-size="7.199999999999999pt" font-style="italic" font-weight="normal" text-decoration="normal" x="353.97700826849996" y="508.6976502344545" text-anchor="start" dominant-baseline="alphabetic" xml:space="preserve">datuak itxaroten...</text></g><g><g><rect fill="rgb(213,213,229)" stroke="none" x="164.70984940424998" y="554.2603019004545" width="106.63876361" height="13.721570772"/></g><text fill="black" stroke="none" font-family="sans-serif" font-size="7.199999999999999pt" font-style="italic" font-weight="bold" text-decoration="normal" x="166.02923120924999" y="563.7598508964545" text-anchor="start" dominant-baseline="alphabetic" xml:space="preserve">socket.send("user1")</text></g><g><path fill="none" stroke="black" paint-order="fill stroke markers" d=" M 39.58145415 567.9818726724544 L 395.0110284851666 567.9818726724544" stroke-miterlimit="10" stroke-width="0.7329898916666666" stroke-dasharray=""/><g transform="translate(396.47700826849996,567.9818726724544) translate(-396.47700826849996,-567.9818726724544)"><path fill="black" stroke="none" paint-order="stroke fill markers" d=" M 389.1471093518333 564.3169232141211 L 396.47700826849996 567.9818726724544 L 389.1471093518333 571.6468221307878 Z"/></g></g><g><g><rect fill="rgb(213,213,229)" stroke="none" x="219.2090543270833" y="581.1756907224544" width="153.63876361" height="13.721570772"/></g><text fill="black" stroke="none" font-family="sans-serif" font-size="7.199999999999999pt" font-style="italic" font-weight="bold" text-decoration="normal" x="220.5284361320833" y="590.6752397184545" text-anchor="start" dominant-baseline="alphabetic" xml:space="preserve">socket.send("welcome user1")</text></g><g><path fill="none" stroke="black" paint-order="fill stroke markers" d=" M 396.47700826849996 594.8972614944544 L 197.04584377899997 594.8972614944544" stroke-miterlimit="10" stroke-width="0.7329898916666666" stroke-dasharray=""/><g transform="translate(195.57986399566664,594.8972614944544) translate(-195.57986399566664,-594.8972614944544)"><path fill="black" stroke="none" paint-order="stroke fill markers" d=" M 202.90976291233332 591.232312036121 L 195.57986399566664 594.8972614944544 L 202.90976291233332 598.5622109527877 Z"/></g></g><g><g><rect fill="rgb(213,213,229)" stroke="none" x="73.76127726783331" y="581.1756907224544" width="87.63876361" height="13.721570772"/></g><text fill="black" stroke="none" font-family="sans-serif" font-size="7.199999999999999pt" font-style="italic" font-weight="bold" text-decoration="normal" x="75.08065907283331" y="590.6752397184545" text-anchor="start" dominant-baseline="alphabetic" xml:space="preserve">"welcome user1"</text></g><g><path fill="none" stroke="black" paint-order="fill stroke markers" d=" M 195.57986399566664 594.8972614944544 L 41.04743393333333 594.8972614944544" stroke-miterlimit="10" stroke-width="0.7329898916666666" stroke-dasharray="3.5183514799999998"/><g transform="translate(39.58145415,594.8972614944544) translate(-39.58145415,-594.8972614944544)"><path fill="black" stroke="none" paint-order="stroke fill markers" d=" M 46.91135306666666 591.232312036121 L 39.58145415 594.8972614944544 L 46.91135306666666 598.5622109527877 Z"/></g></g><path fill="white" stroke="black" paint-order="fill stroke markers" d=" M 849.5575371298332 629.2011884244544 L 849.5575371298332 629.2011884244544 A 7.9162908299999994 7.9162908299999994 0 0 1 857.4738279598332 621.2848975944544 L 941.2697066598332 621.2848975944544 L 941.2697066598332 621.2848975944544 A 7.9162908299999994 7.9162908299999994 0 0 1 949.1859974898332 629.2011884244544 L 949.1859974898332 635.8860562364544 L 949.1859974898332 635.8860562364544 A 7.9162908299999994 7.9162908299999994 0 0 1 941.2697066598332 643.8023470664543 L 857.4738279598332 643.8023470664543 L 857.4738279598332 643.8023470664543 A 7.9162908299999994 7.9162908299999994 0 0 1 849.5575371298332 635.8860562364544 L 849.5575371298332 629.2011884244544" stroke-miterlimit="10" stroke-width="0.7329898916666666" stroke-dasharray=""/><g><text fill="black" stroke="none" font-family="sans-serif" font-size="7.199999999999999pt" font-style="italic" font-weight="bold" text-decoration="normal" x="861.8717673098332" y="635.1823859404544" text-anchor="start" dominant-baseline="alphabetic" xml:space="preserve">socket.socket()</text></g><g><g><rect fill="rgb(255,204,204)" stroke="none" x="640.3546084455833" y="680.7450376064543" width="127.63876361" height="13.721570772"/></g><text fill="black" stroke="none" font-family="sans-serif" font-size="7.199999999999999pt" font-style="italic" font-weight="bold" text-decoration="normal" x="641.6739902505833" y="690.2445866024543" text-anchor="start" dominant-baseline="alphabetic" xml:space="preserve">socket.connect(addr:port)</text></g><g><path fill="none" stroke="black" paint-order="fill stroke markers" d=" M 899.3717673098332 694.4666083784542 L 510.4421929746666 694.4666083784542" stroke-miterlimit="10" stroke-width="0.7329898916666666" stroke-dasharray=""/><g transform="translate(508.9762131913333,694.4666083784542) translate(-508.9762131913333,-694.4666083784542)"><path fill="black" stroke="none" paint-order="stroke fill markers" d=" M 516.306112108 690.8016589201209 L 508.9762131913333 694.4666083784542 L 516.306112108 698.1315578367876 Z"/></g></g><path fill="none" stroke="none"/><g><path fill="white" stroke="black" paint-order="fill stroke markers" d=" M 803.8290339974999 709.5075609554543 L 840.9160907764999 709.5075609554543 L 840.9160907764999 733.2564334454544 L 803.8290339974999 733.2564334454544 L 803.8290339974999 709.5075609554543 Z" stroke-miterlimit="10" stroke-width="1.407340592" stroke-dasharray=""/></g><g><g/><text fill="black" stroke="none" font-family="sans-serif" font-size="6pt" font-style="normal" font-weight="normal" text-decoration="normal" x="813.3725623869999" y="724.4605547454543" text-anchor="start" dominant-baseline="alphabetic" xml:space="preserve">recv2</text></g><g><g><rect fill="rgb(255,204,204)" stroke="none" x="851.3245472381665" y="707.6604264284543" width="37.63876361" height="13.721570772"/></g><text fill="black" stroke="none" font-family="sans-serif" font-size="7.199999999999999pt" font-style="normal" font-weight="normal" text-decoration="normal" x="852.6439290431665" y="717.1599754244544" text-anchor="start" dominant-baseline="alphabetic" xml:space="preserve">create()</text></g><g><path fill="none" stroke="black" paint-order="fill stroke markers" d=" M 899.3717673098332 721.3819972004543 L 842.3820705598332 721.3819972004543" stroke-miterlimit="10" stroke-width="0.7329898916666666" stroke-dasharray="3.5183514799999998"/><g transform="translate(840.9160907764999,721.3819972004543) translate(-840.9160907764999,-721.3819972004543)"><path fill="black" stroke="none" paint-order="stroke fill markers" d=" M 848.2459896931666 717.7170477421209 L 840.9160907764999 721.3819972004543 L 848.2459896931666 725.0469466587876 Z"/></g></g><g><g><rect fill="rgb(255,204,204)" stroke="none" x="519.384669653" y="747.1979011849543" width="77.63876361" height="13.721570772"/></g><text fill="black" stroke="none" font-family="sans-serif" font-size="7.199999999999999pt" font-style="italic" font-weight="bold" text-decoration="normal" x="520.704051458" y="756.6974501809543" text-anchor="start" dominant-baseline="alphabetic" xml:space="preserve">socket.accept()</text></g><g><path fill="none" stroke="black" paint-order="fill stroke markers" d=" M 508.9762131913333 760.9194719569543 L 544.1597279913333 760.9194719569543 L 544.1597279913333 772.3541142669543 L 510.4421929746666 772.3541142669543" stroke-miterlimit="10" stroke-width="0.7329898916666666" stroke-dasharray=""/><g transform="translate(508.9762131913333,772.3541142669543) translate(-508.9762131913333,-772.3541142669543)"><path fill="black" stroke="none" paint-order="stroke fill markers" d=" M 516.306112108 768.689164808621 L 508.9762131913333 772.3541142669543 L 516.306112108 776.0190637252877 Z"/></g></g><g><g><rect fill="rgb(255,204,204)" stroke="none" x="702.8546084455833" y="760.9194719569543" width="2.63876361" height="11.43464231"/></g><text fill="black" stroke="none" font-family="sans-serif" font-size="6pt" font-style="normal" font-weight="normal" text-decoration="normal" x="704.1739902505833" y="768.8357627869543" text-anchor="start" dominant-baseline="alphabetic" xml:space="preserve"></text></g><g><path fill="none" stroke="black" paint-order="fill stroke markers" d=" M 508.9762131913333 772.3541142669543 L 897.9057875264999 772.3541142669543" stroke-miterlimit="10" stroke-width="0.7329898916666666" stroke-dasharray="3.5183514799999998"/><g transform="translate(899.3717673098332,772.3541142669543) translate(-899.3717673098332,-772.3541142669543)"><path fill="black" stroke="none" paint-order="stroke fill markers" d=" M 892.0418683931665 768.689164808621 L 899.3717673098332 772.3541142669543 L 892.0418683931665 776.0190637252877 Z"/></g></g><path fill="none" stroke="none"/><g><path fill="white" stroke="black" paint-order="fill stroke markers" d=" M 957.8274438431665 747.8575920874543 L 998.9145006221665 747.8575920874543 L 998.9145006221665 771.6064645774543 L 957.8274438431665 771.6064645774543 L 957.8274438431665 747.8575920874543 Z" stroke-miterlimit="10" stroke-width="1.407340592" stroke-dasharray=""/></g><g><g/><text fill="black" stroke="none" font-family="sans-serif" font-size="6pt" font-style="normal" font-weight="normal" text-decoration="normal" x="967.3709722326665" y="762.8105858774543" text-anchor="start" dominant-baseline="alphabetic" xml:space="preserve">GUI_2</text></g><g><g><rect fill="rgb(255,204,204)" stroke="none" x="909.7802237714999" y="746.0104575604544" width="37.63876361" height="13.721570772"/></g><text fill="black" stroke="none" font-family="sans-serif" font-size="7.199999999999999pt" font-style="normal" font-weight="normal" text-decoration="normal" x="911.0996055764999" y="755.5100065564544" text-anchor="start" dominant-baseline="alphabetic" xml:space="preserve">create()</text></g><g><path fill="none" stroke="black" paint-order="fill stroke markers" d=" M 899.3717673098332 759.7320283324543 L 956.3614640598332 759.7320283324543" stroke-miterlimit="10" stroke-width="0.7329898916666666" stroke-dasharray="3.5183514799999998"/><g transform="translate(957.8274438431665,759.7320283324543) translate(-957.8274438431665,-759.7320283324543)"><path fill="black" stroke="none" paint-order="stroke fill markers" d=" M 950.4975449264998 756.067078874121 L 957.8274438431665 759.7320283324543 L 950.4975449264998 763.3969777907877 Z"/></g></g><path fill="white" stroke="black" paint-order="fill stroke markers" d=" M 767.5583322069999 806.6580411969543 L 767.5583322069999 806.6580411969543 A 7.9162908299999994 7.9162908299999994 0 0 1 775.4746230369999 798.7417503669543 L 869.2705017369999 798.7417503669543 L 869.2705017369999 798.7417503669543 A 7.9162908299999994 7.9162908299999994 0 0 1 877.1867925669999 806.6580411969543 L 877.1867925669999 823.8979634489543 L 877.1867925669999 823.8979634489543 A 7.9162908299999994 7.9162908299999994 0 0 1 869.2705017369999 831.8142542789543 L 775.4746230369999 831.8142542789543 L 775.4746230369999 831.8142542789543 A 7.9162908299999994 7.9162908299999994 0 0 1 767.5583322069999 823.8979634489543 L 767.5583322069999 806.6580411969543" stroke-miterlimit="10" stroke-width="0.7329898916666666" stroke-dasharray=""/><g><text fill="black" stroke="none" font-family="sans-serif" font-size="7.199999999999999pt" font-style="italic" font-weight="bold" text-decoration="normal" x="790.3725623869999" y="812.6392387129544" text-anchor="start" dominant-baseline="alphabetic" xml:space="preserve">socket.recv()</text><text fill="black" stroke="none" font-family="sans-serif" font-size="7.199999999999999pt" font-style="italic" font-weight="normal" text-decoration="normal" x="779.8725623869999" y="823.1942931529544" text-anchor="start" dominant-baseline="alphabetic" xml:space="preserve">datuak itxaroten...</text></g><path fill="none" stroke="none"/><g><path fill="white" stroke="black" paint-order="fill stroke markers" d=" M 599.4318897246666 807.3177320994544 L 643.5189465036666 807.3177320994544 L 643.5189465036666 831.0666045894543 L 599.4318897246666 831.0666045894543 L 599.4318897246666 807.3177320994544 Z" stroke-miterlimit="10" stroke-width="1.407340592" stroke-dasharray=""/></g><g><g/><text fill="black" stroke="none" font-family="sans-serif" font-size="6pt" font-style="normal" font-weight="normal" text-decoration="normal" x="608.9754181141666" y="822.2707258894543" text-anchor="start" dominant-baseline="alphabetic" xml:space="preserve">thread2</text></g><g><text fill="black" stroke="none" font-family="sans-serif" font-size="7.199999999999999pt" font-style="normal" font-weight="normal" text-decoration="normal" x="520.7040514579999" y="814.9701465684544" text-anchor="start" dominant-baseline="alphabetic" xml:space="preserve">create(client2)</text></g><g><path fill="none" stroke="black" paint-order="fill stroke markers" d=" M 508.9762131913333 819.1921683444543 L 597.9659099413333 819.1921683444543" stroke-miterlimit="10" stroke-width="0.7329898916666666" stroke-dasharray="3.5183514799999998"/><g transform="translate(599.4318897246666,819.1921683444543) translate(-599.4318897246666,-819.1921683444543)"><path fill="black" stroke="none" paint-order="stroke fill markers" d=" M 592.1019908079999 815.527218886121 L 599.4318897246666 819.1921683444543 L 592.1019908079999 822.8571178027877 Z"/></g></g><g><text fill="black" stroke="none" font-family="sans-serif" font-size="7.199999999999999pt" font-style="italic" font-weight="bold" text-decoration="normal" x="663.9239902505833" y="854.5076213249544" text-anchor="start" dominant-baseline="alphabetic" xml:space="preserve">socket.send("user???")</text></g><g><path fill="none" stroke="black" paint-order="fill stroke markers" d=" M 621.4754181141666 858.7296431009543 L 820.9065826036666 858.7296431009543" stroke-miterlimit="10" stroke-width="0.7329898916666666" stroke-dasharray=""/><g transform="translate(822.3725623869999,858.7296431009543) translate(-822.3725623869999,-858.7296431009543)"><path fill="black" stroke="none" paint-order="stroke fill markers" d=" M 815.0426634703332 855.0646936426209 L 822.3725623869999 858.7296431009543 L 815.0426634703332 862.3945925592876 Z"/></g></g><g><text fill="black" stroke="none" font-family="sans-serif" font-size="7.199999999999999pt" font-style="italic" font-weight="bold" text-decoration="normal" x="875.3717673098332" y="854.5076213249544" text-anchor="start" dominant-baseline="alphabetic" xml:space="preserve">"user???"</text></g><g><path fill="none" stroke="black" paint-order="fill stroke markers" d=" M 822.3725623869999 858.7296431009543 L 976.9049924493332 858.7296431009543" stroke-miterlimit="10" stroke-width="0.7329898916666666" stroke-dasharray="3.5183514799999998"/><g transform="translate(978.3709722326665,858.7296431009543) translate(-978.3709722326665,-858.7296431009543)"><path fill="black" stroke="none" paint-order="stroke fill markers" d=" M 971.0410733159998 855.0646936426209 L 978.3709722326665 858.7296431009543 L 971.0410733159998 862.3945925592876 Z"/></g></g><path fill="white" stroke="black" paint-order="fill stroke markers" d=" M 566.6611879341666 879.8397519809542 L 566.6611879341666 879.8397519809542 A 7.9162908299999994 7.9162908299999994 0 0 1 574.5774787641666 871.9234611509543 L 668.3733574641666 871.9234611509543 L 668.3733574641666 871.9234611509543 A 7.9162908299999994 7.9162908299999994 0 0 1 676.2896482941666 879.8397519809542 L 676.2896482941666 897.0796742329543 L 676.2896482941666 897.0796742329543 A 7.9162908299999994 7.9162908299999994 0 0 1 668.3733574641666 904.9959650629543 L 574.5774787641666 904.9959650629543 L 574.5774787641666 904.9959650629543 A 7.9162908299999994 7.9162908299999994 0 0 1 566.6611879341666 897.0796742329543 L 566.6611879341666 879.8397519809542" stroke-miterlimit="10" stroke-width="0.7329898916666666" stroke-dasharray=""/><g><text fill="black" stroke="none" font-family="sans-serif" font-size="7.199999999999999pt" font-style="italic" font-weight="bold" text-decoration="normal" x="589.4754181141666" y="885.8209494969543" text-anchor="start" dominant-baseline="alphabetic" xml:space="preserve">socket.recv()</text><text fill="black" stroke="none" font-family="sans-serif" font-size="7.199999999999999pt" font-style="italic" font-weight="normal" text-decoration="normal" x="578.9754181141666" y="896.3760039369544" text-anchor="start" dominant-baseline="alphabetic" xml:space="preserve">datuak itxaroten...</text></g><g><g><rect fill="rgb(213,213,229)" stroke="none" x="746.6038133684166" y="941.9386556029543" width="106.63876361" height="13.721570772"/></g><text fill="black" stroke="none" font-family="sans-serif" font-size="7.199999999999999pt" font-style="italic" font-weight="bold" text-decoration="normal" x="747.9231951734166" y="951.4382045989544" text-anchor="start" dominant-baseline="alphabetic" xml:space="preserve">socket.send("user2")</text></g><g><path fill="none" stroke="black" paint-order="fill stroke markers" d=" M 978.3709722326665 955.6602263749543 L 622.9413978974999 955.6602263749543" stroke-miterlimit="10" stroke-width="0.7329898916666666" stroke-dasharray=""/><g transform="translate(621.4754181141666,955.6602263749543) translate(-621.4754181141666,-955.6602263749543)"><path fill="black" stroke="none" paint-order="stroke fill markers" d=" M 628.8053170308333 951.9952769166209 L 621.4754181141666 955.6602263749543 L 628.8053170308333 959.3251758332876 Z"/></g></g><g><g><rect fill="rgb(213,213,229)" stroke="none" x="645.1046084455833" y="968.8540444249543" width="153.63876361" height="13.721570772"/></g><text fill="black" stroke="none" font-family="sans-serif" font-size="7.199999999999999pt" font-style="italic" font-weight="bold" text-decoration="normal" x="646.4239902505833" y="978.3535934209543" text-anchor="start" dominant-baseline="alphabetic" xml:space="preserve">socket.send("welcome user2")</text></g><g><path fill="none" stroke="black" paint-order="fill stroke markers" d=" M 621.4754181141666 982.5756151969542 L 820.9065826036666 982.5756151969542" stroke-miterlimit="10" stroke-width="0.7329898916666666" stroke-dasharray=""/><g transform="translate(822.3725623869999,982.5756151969542) translate(-822.3725623869999,-982.5756151969542)"><path fill="black" stroke="none" paint-order="stroke fill markers" d=" M 815.0426634703332 978.9106657386209 L 822.3725623869999 982.5756151969542 L 815.0426634703332 986.2405646552876 Z"/></g></g><g><g><rect fill="rgb(213,213,229)" stroke="none" x="859.0523855048332" y="968.8540444249543" width="82.63876361" height="13.721570772"/></g><text fill="black" stroke="none" font-family="sans-serif" font-size="7.199999999999999pt" font-style="italic" font-weight="bold" text-decoration="normal" x="860.3717673098332" y="978.3535934209543" text-anchor="start" dominant-baseline="alphabetic" xml:space="preserve">welcome user2"</text></g><g><path fill="none" stroke="black" paint-order="fill stroke markers" d=" M 822.3725623869999 982.5756151969542 L 976.9049924493332 982.5756151969542" stroke-miterlimit="10" stroke-width="0.7329898916666666" stroke-dasharray="3.5183514799999998"/><g transform="translate(978.3709722326665,982.5756151969542) translate(-978.3709722326665,-982.5756151969542)"><path fill="black" stroke="none" paint-order="stroke fill markers" d=" M 971.0410733159998 978.9106657386209 L 978.3709722326665 982.5756151969542 L 971.0410733159998 986.2405646552876 Z"/></g></g><g><g><rect fill="rgb(213,213,229)" stroke="none" x="326.70825924991664" y="995.7694332469542" width="163.63876361" height="13.721570772"/></g><text fill="black" stroke="none" font-family="sans-serif" font-size="7.199999999999999pt" font-style="italic" font-weight="bold" text-decoration="normal" x="328.0276410549166" y="1005.2689822429543" text-anchor="start" dominant-baseline="alphabetic" xml:space="preserve">socket.send("user2 joined chat")</text></g><g><path fill="none" stroke="black" paint-order="fill stroke markers" d=" M 621.4754181141666 1009.4910040189542 L 197.04584377899997 1009.4910040189542" stroke-miterlimit="10" stroke-width="0.7329898916666666" stroke-dasharray=""/><g transform="translate(195.57986399566664,1009.4910040189542) translate(-195.57986399566664,-1009.4910040189542)"><path fill="black" stroke="none" paint-order="stroke fill markers" d=" M 202.90976291233332 1005.8260545606208 L 195.57986399566664 1009.4910040189542 L 202.90976291233332 1013.1559534772875 Z"/></g></g><g><g><rect fill="rgb(213,213,229)" stroke="none" x="68.76127726783331" y="995.7694332469542" width="97.63876361" height="13.721570772"/></g><text fill="black" stroke="none" font-family="sans-serif" font-size="7.199999999999999pt" font-style="italic" font-weight="bold" text-decoration="normal" x="70.08065907283331" y="1005.2689822429543" text-anchor="start" dominant-baseline="alphabetic" xml:space="preserve">"user2 joined chat"</text></g><g><path fill="none" stroke="black" paint-order="fill stroke markers" d=" M 195.57986399566664 1009.4910040189542 L 41.04743393333333 1009.4910040189542" stroke-miterlimit="10" stroke-width="0.7329898916666666" stroke-dasharray="3.5183514799999998"/><g transform="translate(39.58145415,1009.4910040189542) translate(-39.58145415,-1009.4910040189542)"><path fill="black" stroke="none" paint-order="stroke fill markers" d=" M 46.91135306666666 1005.8260545606208 L 39.58145415 1009.4910040189542 L 46.91135306666666 1013.1559534772875 Z"/></g></g><g><g><rect fill="rgb(213,213,229)" stroke="none" x="173.20984940424998" y="1059.6275126089542" width="89.63876361" height="13.721570772"/></g><text fill="black" stroke="none" font-family="sans-serif" font-size="7.199999999999999pt" font-style="italic" font-weight="bold" text-decoration="normal" x="174.52923120924999" y="1069.1270616049544" text-anchor="start" dominant-baseline="alphabetic" xml:space="preserve">socket.send(msg)</text></g><g><path fill="none" stroke="black" paint-order="fill stroke markers" d=" M 39.58145415 1073.3490833809542 L 395.0110284851666 1073.3490833809542" stroke-miterlimit="10" stroke-width="0.7329898916666666" stroke-dasharray=""/><g transform="translate(396.47700826849996,1073.3490833809542) translate(-396.47700826849996,-1073.3490833809542)"><path fill="black" stroke="none" paint-order="stroke fill markers" d=" M 389.1471093518333 1069.684133922621 L 396.47700826849996 1073.3490833809542 L 389.1471093518333 1077.0140328392874 Z"/></g></g><g><g><rect fill="rgb(213,213,229)" stroke="none" x="564.60540352275" y="1086.5429014309543" width="89.63876361" height="13.721570772"/></g><text fill="black" stroke="none" font-family="sans-serif" font-size="7.199999999999999pt" font-style="italic" font-weight="bold" text-decoration="normal" x="565.92478532775" y="1096.0424504269545" text-anchor="start" dominant-baseline="alphabetic" xml:space="preserve">socket.send(msg)</text></g><g><path fill="none" stroke="black" paint-order="fill stroke markers" d=" M 396.47700826849996 1100.2644722029543 L 820.9065826036666 1100.2644722029543" stroke-miterlimit="10" stroke-width="0.7329898916666666" stroke-dasharray=""/><g transform="translate(822.3725623869999,1100.2644722029543) translate(-822.3725623869999,-1100.2644722029543)"><path fill="black" stroke="none" paint-order="stroke fill markers" d=" M 815.0426634703332 1096.599522744621 L 822.3725623869999 1100.2644722029543 L 815.0426634703332 1103.9294216612875 Z"/></g></g><g><g><rect fill="rgb(213,213,229)" stroke="none" x="888.5523855048332" y="1086.5429014309543" width="23.638763609999998" height="13.721570772"/></g><text fill="black" stroke="none" font-family="sans-serif" font-size="7.199999999999999pt" font-style="italic" font-weight="bold" text-decoration="normal" x="889.8717673098332" y="1096.0424504269545" text-anchor="start" dominant-baseline="alphabetic" xml:space="preserve">msg</text></g><g><path fill="none" stroke="black" paint-order="fill stroke markers" d=" M 822.3725623869999 1100.2644722029543 L 976.9049924493332 1100.2644722029543" stroke-miterlimit="10" stroke-width="0.7329898916666666" stroke-dasharray="3.5183514799999998"/><g transform="translate(978.3709722326665,1100.2644722029543) translate(-978.3709722326665,-1100.2644722029543)"><path fill="black" stroke="none" paint-order="stroke fill markers" d=" M 971.0410733159998 1096.599522744621 L 978.3709722326665 1100.2644722029543 L 971.0410733159998 1103.9294216612875 Z"/></g></g><g><g><rect fill="rgb(213,213,229)" stroke="none" x="755.1038133684166" y="1150.4009807929542" width="89.63876361" height="13.721570772"/></g><text fill="black" stroke="none" font-family="sans-serif" font-size="7.199999999999999pt" font-style="italic" font-weight="bold" text-decoration="normal" x="756.4231951734166" y="1159.9005297889544" text-anchor="start" dominant-baseline="alphabetic" xml:space="preserve">socket.send(msg)</text></g><g><path fill="none" stroke="black" paint-order="fill stroke markers" d=" M 978.3709722326665 1164.1225515649542 L 622.9413978974999 1164.1225515649542" stroke-miterlimit="10" stroke-width="0.7329898916666666" stroke-dasharray=""/><g transform="translate(621.4754181141666,1164.1225515649542) translate(-621.4754181141666,-1164.1225515649542)"><path fill="black" stroke="none" paint-order="stroke fill markers" d=" M 628.8053170308333 1160.457602106621 L 621.4754181141666 1164.1225515649542 L 628.8053170308333 1167.7875010232874 Z"/></g></g><g><g><rect fill="rgb(213,213,229)" stroke="none" x="363.70825924991664" y="1177.3163696149543" width="89.63876361" height="13.721570772"/></g><text fill="black" stroke="none" font-family="sans-serif" font-size="7.199999999999999pt" font-style="italic" font-weight="bold" text-decoration="normal" x="365.0276410549166" y="1186.8159186109544" text-anchor="start" dominant-baseline="alphabetic" xml:space="preserve">socket.send(msg)</text></g><g><path fill="none" stroke="black" paint-order="fill stroke markers" d=" M 621.4754181141666 1191.0379403869542 L 197.04584377899997 1191.0379403869542" stroke-miterlimit="10" stroke-width="0.7329898916666666" stroke-dasharray=""/><g transform="translate(195.57986399566664,1191.0379403869542) translate(-195.57986399566664,-1191.0379403869542)"><path fill="black" stroke="none" paint-order="stroke fill markers" d=" M 202.90976291233332 1187.372990928621 L 195.57986399566664 1191.0379403869542 L 202.90976291233332 1194.7028898452875 Z"/></g></g><g><g><rect fill="rgb(213,213,229)" stroke="none" x="105.76127726783331" y="1177.3163696149543" width="23.638763609999998" height="13.721570772"/></g><text fill="black" stroke="none" font-family="sans-serif" font-size="7.199999999999999pt" font-style="italic" font-weight="bold" text-decoration="normal" x="107.08065907283331" y="1186.8159186109544" text-anchor="start" dominant-baseline="alphabetic" xml:space="preserve">msg</text></g><g><path fill="none" stroke="black" paint-order="fill stroke markers" d=" M 195.57986399566664 1191.0379403869542 L 41.04743393333333 1191.0379403869542" stroke-miterlimit="10" stroke-width="0.7329898916666666" stroke-dasharray="3.5183514799999998"/><g transform="translate(39.58145415,1191.0379403869542) translate(-39.58145415,-1191.0379403869542)"><path fill="black" stroke="none" paint-order="stroke fill markers" d=" M 46.91135306666666 1187.372990928621 L 39.58145415 1191.0379403869542 L 46.91135306666666 1194.7028898452875 Z"/></g></g><g><g><rect fill="rgb(213,213,229)" stroke="none" x="165.70984940424998" y="1241.1744489769542" width="104.63876361" height="13.721570772"/></g><text fill="black" stroke="none" font-family="sans-serif" font-size="7.199999999999999pt" font-style="italic" font-weight="bold" text-decoration="normal" x="167.02923120924999" y="1250.6739979729543" text-anchor="start" dominant-baseline="alphabetic" xml:space="preserve">socket.send("{quit}")</text></g><g><path fill="none" stroke="black" paint-order="fill stroke markers" d=" M 39.58145415 1254.8960197489541 L 395.0110284851666 1254.8960197489541" stroke-miterlimit="10" stroke-width="0.7329898916666666" stroke-dasharray=""/><g transform="translate(396.47700826849996,1254.8960197489541) translate(-396.47700826849996,-1254.8960197489541)"><path fill="black" stroke="none" paint-order="stroke fill markers" d=" M 389.1471093518333 1251.231070290621 L 396.47700826849996 1254.8960197489541 L 389.1471093518333 1258.5609692072874 Z"/></g></g><g><g><rect fill="rgb(213,213,229)" stroke="none" x="535.10540352275" y="1268.0898377989542" width="148.63876361" height="13.721570772"/></g><text fill="black" stroke="none" font-family="sans-serif" font-size="7.199999999999999pt" font-style="italic" font-weight="bold" text-decoration="normal" x="536.42478532775" y="1277.5893867949544" text-anchor="start" dominant-baseline="alphabetic" xml:space="preserve">socket.send("user1 left chat")</text></g><g><path fill="none" stroke="black" paint-order="fill stroke markers" d=" M 396.47700826849996 1281.8114085709542 L 820.9065826036666 1281.8114085709542" stroke-miterlimit="10" stroke-width="0.7329898916666666" stroke-dasharray=""/><g transform="translate(822.3725623869999,1281.8114085709542) translate(-822.3725623869999,-1281.8114085709542)"><path fill="black" stroke="none" paint-order="stroke fill markers" d=" M 815.0426634703332 1278.146459112621 L 822.3725623869999 1281.8114085709542 L 815.0426634703332 1285.4763580292874 Z"/></g></g><g><g><rect fill="rgb(213,213,229)" stroke="none" x="859.0523855048332" y="1268.0898377989542" width="82.63876361" height="13.721570772"/></g><text fill="black" stroke="none" font-family="sans-serif" font-size="7.199999999999999pt" font-style="italic" font-weight="bold" text-decoration="normal" x="860.3717673098332" y="1277.5893867949544" text-anchor="start" dominant-baseline="alphabetic" xml:space="preserve">"user1 left chat"</text></g><g><path fill="none" stroke="black" paint-order="fill stroke markers" d=" M 822.3725623869999 1281.8114085709542 L 976.9049924493332 1281.8114085709542" stroke-miterlimit="10" stroke-width="0.7329898916666666" stroke-dasharray="3.5183514799999998"/><g transform="translate(978.3709722326665,1281.8114085709542) translate(-978.3709722326665,-1281.8114085709542)"><path fill="black" stroke="none" paint-order="stroke fill markers" d=" M 971.0410733159998 1278.146459112621 L 978.3709722326665 1281.8114085709542 L 971.0410733159998 1285.4763580292874 Z"/></g></g><g><path fill="none" stroke="black" paint-order="fill stroke markers" d=" M 31.665163319999998 1308.1990446709542 L 47.49774498 1324.0316263309542 M 47.49774498 1308.1990446709542 L 31.665163319999998 1324.0316263309542" stroke-miterlimit="10" stroke-width="1.407340592" stroke-dasharray=""/></g><g><path fill="none" stroke="black" paint-order="fill stroke markers" d=" M 187.66357316566663 1337.2254443809543 L 203.49615482566665 1353.0580260409542 M 203.49615482566665 1337.2254443809543 L 187.66357316566663 1353.0580260409542" stroke-miterlimit="10" stroke-width="1.407340592" stroke-dasharray=""/></g><g><path fill="none" stroke="black" paint-order="fill stroke markers" d=" M 110.66436824283333 1366.2518440909544 L 126.49694990283332 1382.0844257509543 M 126.49694990283332 1366.2518440909544 L 110.66436824283333 1382.0844257509543" stroke-miterlimit="10" stroke-width="1.407340592" stroke-dasharray=""/></g><g><path fill="none" stroke="black" paint-order="fill stroke markers" d=" M 388.5607174385 1395.2782438009544 L 404.39329909849994 1411.1108254609544 M 404.39329909849994 1395.2782438009544 L 388.5607174385 1411.1108254609544" stroke-miterlimit="10" stroke-width="1.407340592" stroke-dasharray=""/></g><g><g><rect fill="rgb(213,213,229)" stroke="none" x="747.6038133684166" y="1448.0535160009545" width="104.63876361" height="13.721570772"/></g><text fill="black" stroke="none" font-family="sans-serif" font-size="7.199999999999999pt" font-style="italic" font-weight="bold" text-decoration="normal" x="748.9231951734166" y="1457.5530649969546" text-anchor="start" dominant-baseline="alphabetic" xml:space="preserve">socket.send("{quit}")</text></g><g><path fill="none" stroke="black" paint-order="fill stroke markers" d=" M 978.3709722326665 1461.7750867729544 L 622.9413978974999 1461.7750867729544" stroke-miterlimit="10" stroke-width="0.7329898916666666" stroke-dasharray=""/><g transform="translate(621.4754181141666,1461.7750867729544) translate(-621.4754181141666,-1461.7750867729544)"><path fill="black" stroke="none" paint-order="stroke fill markers" d=" M 628.8053170308333 1458.1101373146212 L 621.4754181141666 1461.7750867729544 L 628.8053170308333 1465.4400362312876 Z"/></g></g><g><path fill="none" stroke="black" paint-order="fill stroke markers" d=" M 970.4546814026666 1488.1627228729544 L 986.2872630626665 1503.9953045329544 M 986.2872630626665 1488.1627228729544 L 970.4546814026666 1503.9953045329544" stroke-miterlimit="10" stroke-width="1.407340592" stroke-dasharray=""/></g><g><path fill="none" stroke="black" paint-order="fill stroke markers" d=" M 814.4562715569999 1517.1891225829545 L 830.2888532169999 1533.0217042429545 M 830.2888532169999 1517.1891225829545 L 814.4562715569999 1533.0217042429545" stroke-miterlimit="10" stroke-width="1.407340592" stroke-dasharray=""/></g><g><path fill="none" stroke="black" paint-order="fill stroke markers" d=" M 891.4554764798332 1546.2155222929546 L 907.2880581398332 1562.0481039529545 M 907.2880581398332 1546.2155222929546 L 891.4554764798332 1562.0481039529545" stroke-miterlimit="10" stroke-width="1.407340592" stroke-dasharray=""/></g><g><path fill="none" stroke="black" paint-order="fill stroke markers" d=" M 613.5591272841666 1575.2419220029547 L 629.3917089441666 1591.0745036629546 M 629.3917089441666 1575.2419220029547 L 613.5591272841666 1591.0745036629546" stroke-miterlimit="10" stroke-width="1.407340592" stroke-dasharray=""/></g><g><g/><path fill="none" stroke="black" paint-order="fill stroke markers" d=" M 8.795878700000003 268.13036778945457 L 600.101990808 268.13036778945457 L 600.101990808 397.86957861445455 L 8.795878700000003 397.86957861445455 L 8.795878700000003 268.13036778945457 Z" stroke-miterlimit="10" stroke-width="1.2565541" stroke-dasharray=""/><path fill="red" stroke="black" paint-order="fill stroke markers" d=" M 8.795878700000003 268.13036778945457 L 8.795878700000003 278.68542222945456 L 71.38763610000001 278.68542222945456 L 76.66516332 273.4078950094546 L 76.66516332 268.13036778945457 L 8.795878700000003 268.13036778945457" stroke-miterlimit="10" stroke-width="1.2565541" stroke-dasharray=""/><text fill="white" stroke="none" font-family="sans-serif" font-size="4.800000000000001pt" font-style="normal" font-weight="bold" text-decoration="normal" x="17.591757400000002" y="275.1670707494546" text-anchor="start" dominant-baseline="alphabetic" xml:space="preserve">TCP handshake</text></g><g><g/><path fill="none" stroke="black" paint-order="fill stroke markers" d=" M 8.795878700000003 530.5114294104544 L 427.26258371849997 530.5114294104544 L 427.26258371849997 608.0910795444544 L 8.795878700000003 608.0910795444544 L 8.795878700000003 530.5114294104544 Z" stroke-miterlimit="10" stroke-width="1.2565541" stroke-dasharray=""/><path fill="#2f2e7b" stroke="black" paint-order="fill stroke markers" d=" M 8.795878700000003 530.5114294104544 L 8.795878700000003 541.0664838504545 L 59.3876361 541.0664838504545 L 64.66516332 535.7889566304544 L 64.66516332 530.5114294104544 L 8.795878700000003 530.5114294104544" stroke-miterlimit="10" stroke-width="1.2565541" stroke-dasharray=""/><text fill="white" stroke="none" font-family="sans-serif" font-size="4.800000000000001pt" font-style="normal" font-weight="bold" text-decoration="normal" x="17.591757400000002" y="537.5481323704545" text-anchor="start" dominant-baseline="alphabetic" xml:space="preserve">login user1</text></g><g><g/><path fill="none" stroke="black" paint-order="fill stroke markers" d=" M 478.19063774133326 656.9961651164542 L 1009.1565476826665 656.9961651164542 L 1009.1565476826665 785.5479323169543 L 478.19063774133326 785.5479323169543 L 478.19063774133326 656.9961651164542 Z" stroke-miterlimit="10" stroke-width="1.2565541" stroke-dasharray=""/><path fill="red" stroke="black" paint-order="fill stroke markers" d=" M 478.19063774133326 656.9961651164542 L 478.19063774133326 667.5512195564543 L 540.7823951413333 667.5512195564543 L 546.0599223613333 662.2736923364542 L 546.0599223613333 656.9961651164542 L 478.19063774133326 656.9961651164542" stroke-miterlimit="10" stroke-width="1.2565541" stroke-dasharray=""/><text fill="white" stroke="none" font-family="sans-serif" font-size="4.800000000000001pt" font-style="normal" font-weight="bold" text-decoration="normal" x="486.98651644133326" y="664.0328680764543" text-anchor="start" dominant-baseline="alphabetic" xml:space="preserve">TCP handshake</text></g><g><g/><path fill="none" stroke="black" paint-order="fill stroke markers" d=" M 8.795878700000003 918.1897831129543 L 1009.1565476826665 918.1897831129543 L 1009.1565476826665 1022.6848220689542 L 8.795878700000003 1022.6848220689542 L 8.795878700000003 918.1897831129543 Z" stroke-miterlimit="10" stroke-width="1.2565541" stroke-dasharray=""/><path fill="#2f2e7b" stroke="black" paint-order="fill stroke markers" d=" M 8.795878700000003 918.1897831129543 L 8.795878700000003 928.7448375529543 L 59.3876361 928.7448375529543 L 64.66516332 923.4673103329543 L 64.66516332 918.1897831129543 L 8.795878700000003 918.1897831129543" stroke-miterlimit="10" stroke-width="1.2565541" stroke-dasharray=""/><text fill="white" stroke="none" font-family="sans-serif" font-size="4.800000000000001pt" font-style="normal" font-weight="bold" text-decoration="normal" x="17.591757400000002" y="925.2264860729543" text-anchor="start" dominant-baseline="alphabetic" xml:space="preserve">login user2</text></g><g><g/><path fill="none" stroke="black" paint-order="fill stroke markers" d=" M 8.795878700000003 1035.878640118954 L 1009.1565476826665 1035.878640118954 L 1009.1565476826665 1113.4582902529542 L 8.795878700000003 1113.4582902529542 L 8.795878700000003 1035.878640118954 Z" stroke-miterlimit="10" stroke-width="1.2565541" stroke-dasharray=""/><path fill="#2f2e7b" stroke="black" paint-order="fill stroke markers" d=" M 8.795878700000003 1035.878640118954 L 8.795878700000003 1046.4336945589541 L 70.38763610000001 1046.4336945589541 L 75.66516332 1041.156167338954 L 75.66516332 1035.878640118954 L 8.795878700000003 1035.878640118954" stroke-miterlimit="10" stroke-width="1.2565541" stroke-dasharray=""/><text fill="white" stroke="none" font-family="sans-serif" font-size="4.800000000000001pt" font-style="normal" font-weight="bold" text-decoration="normal" x="17.591757400000002" y="1042.915343078954" text-anchor="start" dominant-baseline="alphabetic" xml:space="preserve">msg from user1</text></g><g><g/><path fill="none" stroke="black" paint-order="fill stroke markers" d=" M 8.795878700000003 1126.652108302954 L 1009.1565476826665 1126.652108302954 L 1009.1565476826665 1204.2317584369541 L 8.795878700000003 1204.2317584369541 L 8.795878700000003 1126.652108302954 Z" stroke-miterlimit="10" stroke-width="1.2565541" stroke-dasharray=""/><path fill="#2f2e7b" stroke="black" paint-order="fill stroke markers" d=" M 8.795878700000003 1126.652108302954 L 8.795878700000003 1137.207162742954 L 70.38763610000001 1137.207162742954 L 75.66516332 1131.929635522954 L 75.66516332 1126.652108302954 L 8.795878700000003 1126.652108302954" stroke-miterlimit="10" stroke-width="1.2565541" stroke-dasharray=""/><text fill="white" stroke="none" font-family="sans-serif" font-size="4.800000000000001pt" font-style="normal" font-weight="bold" text-decoration="normal" x="17.591757400000002" y="1133.688811262954" text-anchor="start" dominant-baseline="alphabetic" xml:space="preserve">msg from user2</text></g><g><g/><path fill="none" stroke="black" paint-order="fill stroke markers" d=" M 8.795878700000003 1217.425576486954 L 1009.1565476826665 1217.425576486954 L 1009.1565476826665 1295.005226620954 L 8.795878700000003 1295.005226620954 L 8.795878700000003 1217.425576486954 Z" stroke-miterlimit="10" stroke-width="1.2565541" stroke-dasharray=""/><path fill="#2f2e7b" stroke="black" paint-order="fill stroke markers" d=" M 8.795878700000003 1217.425576486954 L 8.795878700000003 1227.980630926954 L 63.3876361 1227.980630926954 L 68.66516332 1222.703103706954 L 68.66516332 1217.425576486954 L 8.795878700000003 1217.425576486954" stroke-miterlimit="10" stroke-width="1.2565541" stroke-dasharray=""/><text fill="white" stroke="none" font-family="sans-serif" font-size="4.800000000000001pt" font-style="normal" font-weight="bold" text-decoration="normal" x="17.591757400000002" y="1224.462279446954" text-anchor="start" dominant-baseline="alphabetic" xml:space="preserve">user1 logout</text></g><g><g/><path fill="none" stroke="black" paint-order="fill stroke markers" d=" M 590.6898426641666 1424.3046435109543 L 1009.1565476826665 1424.3046435109543 L 1009.1565476826665 1474.9689048229543 L 590.6898426641666 1474.9689048229543 L 590.6898426641666 1424.3046435109543 Z" stroke-miterlimit="10" stroke-width="1.2565541" stroke-dasharray=""/><path fill="#2f2e7b" stroke="black" paint-order="fill stroke markers" d=" M 590.6898426641666 1424.3046435109543 L 590.6898426641666 1434.8596979509543 L 645.2816000641666 1434.8596979509543 L 650.5591272841666 1429.5821707309542 L 650.5591272841666 1424.3046435109543 L 590.6898426641666 1424.3046435109543" stroke-miterlimit="10" stroke-width="1.2565541" stroke-dasharray=""/><text fill="white" stroke="none" font-family="sans-serif" font-size="4.800000000000001pt" font-style="normal" font-weight="bold" text-decoration="normal" x="599.4857213641666" y="1431.3413464709542" text-anchor="start" dominant-baseline="alphabetic" xml:space="preserve">user2 logout</text></g></g></g></svg>